<svg width="30" height="30" viewBox="0 0 30 30" fill="none" xmlns="http://www.w3.org/2000/svg">
<rect width="30" height="30" fill="#232129"/>
<path d="M9 15H19V16H9V15ZM16.816 12H9V13H18.047C17.597 12.717 17.184 12.382 16.816 12V12ZM22 13.975V16.544C22 20.65 16 19 16 19C16 19 17.518 25 13.362 25H6V5H15.5C15.812 4.251 16.263 3.576 16.816 3H4V27H14.189C17.352 27 24 19.777 24 17.386V13.5C23.377 13.76 22.703 13.921 22 13.975ZM9 10H15.5C15.366 9.68 15.263 9.344 15.181 9H9V10V10ZM26 7.5C26 9.985 23.983 12 21.5 12C19.017 12 17 9.985 17 7.5C17 5.015 19.017 3 21.5 3C23.983 3 26 5.015 26 7.5ZM24 7H22V5H21V7H19V8H21V10H22V8H24V7Z" fill="white"/>
</svg>
